# xmcd
#
# Track frame offsets: 
#        150
#        22788
#        42860
#        66010
#        83688
#        102635
#        126303
#        149785
#        165673
#        189680
#
# Disc length: 2777 seconds
#
# Revision: 0
# Processed by: cddbd v1.5.2PL0 Copyright (c) Steve Scherf et al.
# Submitted via: ExactAudioCopy v1.0b3
#
DISCID=8a0ad70a
DTITLE=My Huyen - Hoa Tim Ngay Xua
DYEAR=1994
DGENRE=
TTITLE0=Giay phut chanh long
TTITLE1=Ngay buon
TTITLE2=Hoi tuong
TTITLE3=Bai ca ky niem
TTITLE4=Doi thay
TTITLE5=Hoa tim ngay xua
TTITLE6=Tim ca rung chieu
TTITLE7=Dem say
TTITLE8=Doi con gai
TTITLE9=Tiec thuong
EXTD=
EXTT0=
EXTT1=
EXTT2=
EXTT3=
EXTT4=
EXTT5=
EXTT6=
EXTT7=
EXTT8=
EXTT9=
PLAYORDER=
